Coordinates
version=1
nRows=8
nColumns=40
inDegrees=yes

Units are S.I. units (second, meters, Newtons, ...)
If the header above contains a line with 'inDegrees', this indicates whether rotational values are in degrees (yes) or radians (no).

endheader
time	pelvis_tilt	pelvis_list	pelvis_rotation	pelvis_tx	pelvis_ty	pelvis_tz	hip_flexion_r	hip_adduction_r	hip_rotation_r	knee_angle_r	knee_angle_r_beta	ankle_angle_r	subtalar_angle_r	mtp_angle_r	hip_flexion_l	hip_adduction_l	hip_rotation_l	knee_angle_l	knee_angle_l_beta	ankle_angle_l	subtalar_angle_l	mtp_angle_l	lumbar_extension	lumbar_bending	lumbar_rotation	arm_flex_r	arm_add_r	arm_rot_r	elbow_flex_r	pro_sup_r	wrist_flex_r	wrist_dev_r	arm_flex_l	arm_add_l	arm_rot_l	elbow_flex_l	pro_sup_l	wrist_flex_l	wrist_dev_l
      0.44500000	      3.55485825	     -0.43972943	     -2.19222366	     -0.09492998	      0.94652628	      0.28242823	     -0.11437333	      1.12142226	    -13.59451969	     11.30431330	      0.19729749	      2.10162845	      0.14681454	      0.00000000	     11.90589003	    -14.08516945	    -17.43481518	     62.65958997	      1.09361615	     -3.46338497	     -9.28546070	      0.00000000	     -4.54423494	      2.06820101	      1.54241090	     44.39892561	    -16.17169456	     44.39892561	     74.90353201	     45.06247312	      0.00000000	      0.00000000	     44.39892561	    -16.17169456	     44.39892561	     74.90353201	     45.06247312	      0.00000000	      0.00000000
      0.45000000	      3.50328369	     -0.37646875	     -2.34166652	     -0.08869666	      0.94675894	      0.28265300	     -0.55073339	      1.04096719	    -13.83384826	     11.19251937	      0.19534631	      2.25056044	      0.35561295	      0.00000000	     12.66997236	    -14.02148905	    -17.73844431	     62.02525526	      1.08254492	     -3.04114970	     -9.26456224	      0.00000000	     -4.44087788	      1.94915655	      1.59379184	     44.39921585	    -16.17075935	     44.39921585	     74.90368310	     45.06220226	      0.00000000	      0.00000000	     44.39921585	    -16.17075935	     44.39921585	     74.90368310	     45.06220226	      0.00000000	      0.00000000
      0.45500000	      3.45014342	     -0.37103674	     -2.45198952	     -0.08256952	      0.94687495	      0.28274463	     -0.95137949	      1.01144312	    -13.96043861	     11.15769366	      0.19473849	      2.31979341	      0.44018663	      0.00000000	     13.52125483	    -14.04116611	    -17.96993709	     61.51511318	      1.07364126	     -2.81722531	     -9.23444715	      0.00000000	     -4.51856852	      1.89677724	      1.61435285	     44.39929603	    -16.17050112	     44.39929603	     74.90372479	     45.06212771	      0.00000000	      0.00000000	     44.39929603	    -16.17050112	     44.39929603	     74.90372479	     45.06212771	      0.00000000	      0.00000000
      0.46000000	      3.63277060	      0.12607441	     -2.65610085	     -0.07623900	      0.94773186	      0.28313354	     -1.83165387	      0.43119232	    -14.03390556	     10.65325086	      0.18593430	      2.85951970	      1.78412698	      0.00000000	     13.70951828	    -13.27253761	    -18.16750933	     60.28846670	      1.05223224	     -1.47163647	     -8.52361589	      0.00000000	     -4.65599016	      1.26205967	      1.86419968	     44.40022235	    -16.16751823	     44.40022235	     74.90420590	     45.06127056	      0.00000000	      0.00000000	     44.40022235	    -16.16751823	     44.40022235	     74.90420590	     45.06127056	      0.00000000	      0.00000000
      0.46500000	      3.77185686	      0.50968160	     -2.85523529	     -0.07003719	      0.94836738	      0.28351545	     -2.40178685	     -0.09196786	    -14.47574851	     10.66976917	      0.18622260	      3.22197617	      2.74926080	      0.00000000	     14.05312878	    -12.74630892	    -18.51556338	     59.14859232	      1.03233768	     -1.25794028	     -8.23309341	      0.00000000	     -4.85566722	      0.70790420	      2.02254378	     44.40187896	    -16.16219185	     44.40187896	     74.90506179	     45.05976623	      0.00000000	      0.00000000	     44.40187896	    -16.16219185	     44.40187896	     74.90506179	     45.05976623	      0.00000000	      0.00000000
      0.47000000	      3.66350756	      0.46939546	     -2.96008789	     -0.06385886	      0.94819065	      0.28357979	     -2.74846257	     -0.07831492	    -14.67198828	     10.61635748	      0.18529039	      3.34955970	      2.81819525	      0.00000000	     14.85087500	    -12.80461799	    -18.79946999	     58.41253072	      1.01949099	     -1.04398858	     -8.22287245	      0.00000000	     -4.73704972	      0.74893258	      1.99241802	     44.40203896	    -16.16167799	     44.40203896	     74.90514417	     45.05962260	      0.00000000	      0.00000000	     44.40203896	    -16.16167799	     44.40203896	     74.90514417	     45.05962260	      0.00000000	      0.00000000
      0.47500000	      3.79408672	      0.71287201	     -3.09269310	     -0.05769400	      0.94866232	      0.28372728	     -3.45981210	     -0.38745298	    -14.75860036	     10.35456990	      0.18072134	      3.78807476	      3.67669162	      0.00000000	     15.17474244	    -12.34676576	    -18.95328677	     57.21602748	      0.99860806	     -0.31280037	     -7.77868884	      0.00000000	     -4.92715423	      0.40034764	      2.09094874	     44.40298752	    -16.15863267	     44.40298752	     74.90563177	     45.05877669	      0.00000000	      0.00000000	     44.40298752	    -16.15863267	     44.40298752	     74.90563177	     45.05877669	      0.00000000	      0.00000000
      0.48000000	      3.68159199	      0.65078826	     -3.17065379	     -0.05161582	      0.94830840	      0.28372830	     -3.78129398	     -0.34853109	    -14.90874991	     10.33464947	      0.18037366	      3.84430748	      3.71679356	      0.00000000	     16.02886622	    -12.44520811	    -19.21325399	     56.55362196	      0.98704691	     -0.20793835	     -7.75234012	      0.00000000	     -4.94493094	      0.39909203	      2.08233677	     44.40307118	    -16.15836435	     44.40307118	     74.90567465	     45.05870272	      0.00000000	      0.00000000	     44.40307118	    -16.15836435	     44.40307118	     74.90567465	     45.05870272	      0.00000000	      0.00000000
